<?xml version="1.0" standalone="no"?>
<!DOCTYPE svg PUBLIC "-//W3C//DTD SVG 20010904//EN"
 "http://www.w3.org/TR/2001/REC-SVG-20010904/DTD/svg10.dtd">
<svg version="1.0" xmlns="http://www.w3.org/2000/svg"
 width="564.000000pt" height="472.000000pt" viewBox="0 0 564.000000 172.000000"
 preserveAspectRatio="xMidYMid meet">
<g transform="translate(0.000000,372.000000) scale(0.100000,-0.100000)"
fill="#000000" stroke="none">
<path d="M2625 3066 c-49 -29 -179 -104 -288 -166 -108 -63 -194 -117 -190
-121 5 -4 177 -104 383 -223 l375 -216 5 -450 5 -450 280 161 c154 89 286 166
293 171 9 8 12 111 12 454 l0 443 -92 54 c-51 30 -136 79 -188 109 -52 30
-186 107 -297 171 -111 65 -204 117 -205 117 -2 -1 -43 -25 -93 -54z"/>
<path d="M2545 2124 c-148 -85 -280 -162 -293 -170 l-22 -15 2 -501 3 -502
290 -168 290 -167 3 419 c1 231 1 609 0 840 l-3 420 -270 -156z"/>
</g>
</svg>
